<svg id="Layer_1" data-name="Layer 1" xmlns="http://www.w3.org/2000/svg" viewBox="0 0 506 558"><defs><style>.cls-1{fill:#4a00ff;}.cls-2,.cls-3,.cls-4{isolation:isolate;font-family:Poppins-MediumItalic, Poppins;font-weight:500;font-style:italic;}.cls-2{font-size:30.08px;}.cls-3{font-size:21.4px;}.cls-4{font-size:15.15px;}</style></defs><path d="M0,0V558H506V0ZM499.37,550.69H6.63V7.31H499.37Z"/><rect class="cls-1" x="18" y="80" width="470" height="430"/><text class="cls-2" transform="translate(34.52 54.18)">to:</text><path d="M430.61,26a4.45,4.45,0,0,0-2.67,8l20.18,15.13a3,3,0,0,0,3.56,0L471.86,34a4.45,4.45,0,0,0-2.67-8Zm-4.45,10.39V55.68a5.94,5.94,0,0,0,5.94,5.93h35.61a6,6,0,0,0,5.94-5.93V36.39L453.46,51.52a5.91,5.91,0,0,1-7.12,0Z"/><text class="cls-3" transform="translate(21.19 536.16)">from:</text><text class="cls-4" transform="translate(399 534.36)">#unspoken</text></svg>